<svg width="27" height="48" viewBox="0 0 27 48" fill="none" xmlns="http://www.w3.org/2000/svg">
<path d="M26.2114 0H0.781085C0.360501 0 0.0075106 0.3225 0.0075106 0.705V16.9125H27V0.705C26.9925 0.3225 26.6395 0 26.2114 0ZM23.1772 14.4C23.1772 14.8275 22.8317 15.18 22.3961 15.18C21.968 15.18 21.615 14.8275 21.615 14.4V8.97C21.615 8.5425 21.968 8.19 22.3961 8.19C22.8317 8.19 23.1772 8.5425 23.1772 8.97V14.4ZM0 45.2925C0 45.675 0.352991 45.99 0.773575 45.99H2.78637V48H5.03199V45.99H21.953V48H24.1986V45.99H26.2114C26.632 45.99 26.985 45.675 26.985 45.2925V18.48H0V45.2925ZM21.615 23.7825C21.615 23.355 21.968 23.0025 22.3961 23.0025C22.8317 23.0025 23.1772 23.355 23.1772 23.7825V29.205C23.1772 29.64 22.8317 29.985 22.3961 29.985C21.968 29.985 21.615 29.64 21.615 29.205V23.7825Z" fill="#1A76D2"/>
</svg>
