<svg width="41" height="41" viewBox="0 0 41 41" fill="none" xmlns="http://www.w3.org/2000/svg">
<path d="M1.22695 33.8429L4.19074 36.8071C4.19011 36.8067 4.19116 36.8076 4.19074 36.8071C4.19137 36.8076 4.19283 36.809 4.19325 36.8097L7.15641 39.7735C7.97326 40.5914 9.0482 41 10.1213 41C11.1962 41 12.2711 40.5916 13.088 39.7735C13.9048 40.5914 14.9798 41 16.0528 41C17.1259 41 18.2006 40.5916 19.0177 39.7735C19.81 38.9811 20.2461 37.9286 20.2461 36.8086C20.2461 35.6875 19.81 34.6342 19.0177 33.8438L14.5697 29.3953L29.3949 14.57L33.8433 19.0188C34.6602 19.8348 35.7351 20.2433 36.8082 20.2433C37.8812 20.2433 38.9559 19.8348 39.773 19.0188C41.409 17.3839 41.409 14.7224 39.773 13.0874C41.409 11.4525 41.409 8.79289 39.773 7.15793L36.8092 4.1937C36.8088 4.19328 36.8098 4.19412 36.8092 4.1937C36.8086 4.19328 36.8071 4.19181 36.8067 4.19118L33.8435 1.22737C32.2063 -0.409893 29.5465 -0.408425 27.9122 1.22758C26.2783 -0.408425 23.6164 -0.408635 21.9825 1.22737C21.1902 2.01969 20.7541 3.07221 20.7541 4.19223C20.7541 5.3133 21.1902 6.36666 21.9825 7.15709L26.4305 11.6055L11.6052 26.4309L7.15683 21.982C5.52293 20.3502 2.86127 20.3491 1.22737 21.9831C-0.408632 23.618 -0.408632 26.2787 1.22737 27.9136C-0.409052 29.5482 -0.409052 32.208 1.22695 33.8429ZM36.8082 16.0531L32.36 11.6049L33.8433 13.0872C33.8467 13.0906 33.8511 13.0929 33.8546 13.0965L36.8103 16.051L36.8082 16.0531ZM36.8103 10.1205L36.8082 10.1226L35.3254 8.63962L36.8103 10.1205ZM27.912 7.15667L24.9471 4.19181L27.9074 7.15101C27.909 7.1529 27.9103 7.15499 27.912 7.15667ZM16.0549 36.8065L16.0528 36.8086L11.6046 32.3604L16.0549 36.8065Z" fill="#1A76D2"/>
</svg>
