<svg width="30" height="49" viewBox="0 0 30 49" fill="none" xmlns="http://www.w3.org/2000/svg">
<path d="M29.7125 7.71393H0.520508V9.68023H29.7125V7.71393Z" fill="#1A76D2"/>
<path d="M29.7125 46.8887H0.596191V48.4012H29.7125V46.8887Z" fill="#1A76D2"/>
<path d="M24.0407 14.5203H21.6206V17.2429H24.0407V14.5203Z" fill="#1A76D2"/>
<path d="M18.3681 39.6284V45.3004H11.7886V39.6284C11.7886 37.8134 13.3011 36.3008 15.1162 36.3008C16.9312 36.3008 18.3681 37.8134 18.3681 39.6284Z" fill="#1A76D2"/>
<path d="M2.63818 11.2684V45.3005H10.2765V39.6285C10.2765 36.9059 12.4697 34.7884 15.1166 34.7884C17.8392 34.7884 19.9567 36.9816 19.9567 39.6285V45.3005H27.595V11.2684H2.63818ZM10.2009 32.3683C10.2009 32.8221 9.82273 33.1246 9.4446 33.1246H5.43638C4.98262 33.1246 4.68011 32.7465 4.68011 32.3683V28.0576C4.68011 27.6038 5.05824 27.3013 5.43638 27.3013H9.4446C9.89836 27.3013 10.2009 27.6795 10.2009 28.0576V32.3683ZM10.2009 25.1838C10.2009 25.6375 9.82273 25.94 9.4446 25.94H5.43638C4.98262 25.94 4.68011 25.5619 4.68011 25.1838V20.873C4.68011 20.4193 5.05824 20.1168 5.43638 20.1168H9.4446C9.89836 20.1168 10.2009 20.4949 10.2009 20.873V25.1838ZM10.2009 17.9992C10.2009 18.453 9.82273 18.7555 9.4446 18.7555H5.43638C4.98262 18.7555 4.68011 18.3774 4.68011 17.9992V13.6885C4.68011 13.2347 5.05824 12.9322 5.43638 12.9322H9.4446C9.89836 12.9322 10.2009 13.3104 10.2009 13.6885V17.9992ZM17.9148 32.3683C17.9148 32.8221 17.5367 33.1246 17.1585 33.1246H13.1503C12.6966 33.1246 12.394 32.7465 12.394 32.3683V28.0576C12.394 27.6038 12.7722 27.3013 13.1503 27.3013H17.1585C17.6123 27.3013 17.9148 27.6795 17.9148 28.0576V32.3683ZM17.9148 25.1838C17.9148 25.6375 17.5367 25.94 17.1585 25.94H13.1503C12.6966 25.94 12.394 25.5619 12.394 25.1838V20.873C12.394 20.4193 12.7722 20.1168 13.1503 20.1168H17.1585C17.6123 20.1168 17.9148 20.4949 17.9148 20.873V25.1838ZM17.9148 17.9992C17.9148 18.453 17.5367 18.7555 17.1585 18.7555H13.1503C12.6966 18.7555 12.394 18.3774 12.394 17.9992V13.6885C12.394 13.2347 12.7722 12.9322 13.1503 12.9322H17.1585C17.6123 12.9322 17.9148 13.3104 17.9148 13.6885V17.9992ZM25.6287 32.3683C25.6287 32.8221 25.2506 33.1246 24.8725 33.1246H20.8643C20.4105 33.1246 20.108 32.7465 20.108 32.3683V28.0576C20.108 27.6038 20.4861 27.3013 20.8643 27.3013H24.8725C25.3262 27.3013 25.6287 27.6795 25.6287 28.0576V32.3683ZM25.6287 25.1838C25.6287 25.6375 25.2506 25.94 24.8725 25.94H20.8643C20.4105 25.94 20.108 25.5619 20.108 25.1838V20.873C20.108 20.4193 20.4861 20.1168 20.8643 20.1168H24.8725C25.3262 20.1168 25.6287 20.4949 25.6287 20.873V25.1838ZM25.6287 17.9992C25.6287 18.453 25.2506 18.7555 24.8725 18.7555H20.8643C20.4105 18.7555 20.108 18.3774 20.108 17.9992V13.6885C20.108 13.2347 20.4861 12.9322 20.8643 12.9322H24.8725C25.3262 12.9322 25.6287 13.3104 25.6287 13.6885V17.9992Z" fill="#1A76D2"/>
<path d="M8.61293 14.5203H6.19287V17.2429H8.61293V14.5203Z" fill="#1A76D2"/>
<path d="M16.3268 14.5203H13.9067V17.2429H16.3268V14.5203Z" fill="#1A76D2"/>
<path d="M8.61293 21.7049H6.19287V24.4275H8.61293V21.7049Z" fill="#1A76D2"/>
<path d="M16.3268 21.7049H13.9067V24.4275H16.3268V21.7049Z" fill="#1A76D2"/>
<path d="M24.0407 21.7049H21.6206V24.4275H24.0407V21.7049Z" fill="#1A76D2"/>
<path d="M8.61293 28.8895H6.19287V31.612H8.61293V28.8895Z" fill="#1A76D2"/>
<path d="M16.3268 28.8895H13.9067V31.612H16.3268V28.8895Z" fill="#1A76D2"/>
<path d="M24.0407 28.8895H21.6206V31.612H24.0407V28.8895Z" fill="#1A76D2"/>
<path d="M25.9304 3.93259L26.3086 6.12577L24.3423 5.067L22.376 6.12577L22.7541 3.93259L21.0903 2.34443L23.3591 2.04192L24.3423 0L25.3254 2.04192L27.5942 2.34443L25.9304 3.93259Z" fill="#1A76D2"/>
<path d="M16.7044 3.93259L17.0825 6.12577L15.1162 5.067L13.1499 6.12577L13.4524 4.31073L13.528 3.93259L11.8643 2.34443L14.1331 2.04192L15.1162 0L16.0994 2.04192L18.3682 2.34443L16.7044 3.93259Z" fill="#1A76D2"/>
<path d="M7.4783 3.93259L7.85644 6.12577L5.89014 5.067L3.92384 6.12577L4.30197 3.93259L2.63818 2.34443L4.90699 2.04192L5.89014 0L6.87329 2.04192L9.14209 2.34443L7.4783 3.93259Z" fill="#1A76D2"/>
</svg>
