<svg xmlns="http://www.w3.org/2000/svg" xmlns:xlink="http://www.w3.org/1999/xlink" width="500" zoomAndPan="magnify" viewBox="0 0 375 374.999991" height="500" preserveAspectRatio="xMidYMid meet" version="1.0"><defs><g/><clipPath id="5a67ee02b5"><path d="M 269.886719 150 L 310 150 L 310 187 L 269.886719 187 Z M 269.886719 150 " clip-rule="nonzero"/></clipPath><clipPath id="8dc585ece8"><path d="M 283 160 L 320 160 L 320 200.539062 L 283 200.539062 Z M 283 160 " clip-rule="nonzero"/></clipPath><clipPath id="ae092a297f"><path d="M 310 146.539062 L 323.886719 146.539062 L 323.886719 160 L 310 160 Z M 310 146.539062 " clip-rule="nonzero"/></clipPath></defs><g fill="#ff6600" fill-opacity="1"><g transform="translate(51.449989, 195.871862)"><g><path d="M 13.359375 0.65625 C 10.421875 0.65625 7.710938 0.078125 5.234375 -1.078125 C 2.753906 -2.242188 0.722656 -3.878906 -0.859375 -5.984375 L 4.015625 -11.84375 C 6.554688 -8.332031 9.601562 -6.578125 13.15625 -6.578125 C 17.945312 -6.578125 20.34375 -9.410156 20.34375 -15.078125 L 20.34375 -38.890625 L 3.953125 -38.890625 L 3.953125 -46.0625 L 28.890625 -46.0625 L 28.890625 -15.53125 C 28.890625 -10.132812 27.570312 -6.085938 24.9375 -3.390625 C 22.3125 -0.691406 18.453125 0.65625 13.359375 0.65625 Z M 13.359375 0.65625 "/></g></g></g><g fill="#ff6600" fill-opacity="1"><g transform="translate(86.133161, 195.871862)"><g><path d="M 26 0.65625 C 19.632812 0.65625 14.675781 -1.128906 11.125 -4.703125 C 7.570312 -8.273438 5.796875 -13.398438 5.796875 -20.078125 L 5.796875 -46.0625 L 14.34375 -46.0625 L 14.34375 -20.40625 C 14.34375 -11.363281 18.25 -6.84375 26.0625 -6.84375 C 33.820312 -6.84375 37.703125 -11.363281 37.703125 -20.40625 L 37.703125 -46.0625 L 46.140625 -46.0625 L 46.140625 -20.078125 C 46.140625 -13.398438 44.367188 -8.273438 40.828125 -4.703125 C 37.296875 -1.128906 32.351562 0.65625 26 0.65625 Z M 26 0.65625 "/></g></g></g><g fill="#ff6600" fill-opacity="1"><g transform="translate(138.059191, 195.871862)"><g><path d="M 20.46875 0.65625 C 16.914062 0.65625 13.484375 0.148438 10.171875 -0.859375 C 6.859375 -1.867188 4.234375 -3.207031 2.296875 -4.875 L 5.265625 -11.515625 C 7.148438 -10.023438 9.460938 -8.804688 12.203125 -7.859375 C 14.953125 -6.921875 17.707031 -6.453125 20.46875 -6.453125 C 23.882812 -6.453125 26.4375 -7 28.125 -8.09375 C 29.820312 -9.1875 30.671875 -10.632812 30.671875 -12.4375 C 30.671875 -13.75 30.195312 -14.832031 29.25 -15.6875 C 28.3125 -16.550781 27.117188 -17.222656 25.671875 -17.703125 C 24.222656 -18.179688 22.25 -18.726562 19.75 -19.34375 C 16.238281 -20.175781 13.394531 -21.007812 11.21875 -21.84375 C 9.050781 -22.675781 7.1875 -23.984375 5.625 -25.765625 C 4.070312 -27.546875 3.296875 -29.945312 3.296875 -32.96875 C 3.296875 -35.519531 3.984375 -37.835938 5.359375 -39.921875 C 6.742188 -42.003906 8.828125 -43.660156 11.609375 -44.890625 C 14.398438 -46.117188 17.8125 -46.734375 21.84375 -46.734375 C 24.65625 -46.734375 27.421875 -46.378906 30.140625 -45.671875 C 32.859375 -44.972656 35.207031 -43.960938 37.1875 -42.640625 L 34.484375 -36 C 32.460938 -37.1875 30.351562 -38.085938 28.15625 -38.703125 C 25.96875 -39.316406 23.84375 -39.625 21.78125 -39.625 C 18.40625 -39.625 15.894531 -39.050781 14.25 -37.90625 C 12.601562 -36.769531 11.78125 -35.253906 11.78125 -33.359375 C 11.78125 -32.046875 12.25 -30.972656 13.1875 -30.140625 C 14.132812 -29.304688 15.332031 -28.644531 16.78125 -28.15625 C 18.226562 -27.675781 20.203125 -27.128906 22.703125 -26.515625 C 26.128906 -25.734375 28.9375 -24.910156 31.125 -24.046875 C 33.320312 -23.191406 35.195312 -21.882812 36.75 -20.125 C 38.3125 -18.375 39.09375 -16.007812 39.09375 -13.03125 C 39.09375 -10.488281 38.398438 -8.1875 37.015625 -6.125 C 35.640625 -4.0625 33.546875 -2.414062 30.734375 -1.1875 C 27.921875 0.0390625 24.5 0.65625 20.46875 0.65625 Z M 20.46875 0.65625 "/></g></g></g><g fill="#ff6600" fill-opacity="1"><g transform="translate(179.455226, 195.871862)"><g><path d="M 15.53125 -38.828125 L 0.265625 -38.828125 L 0.265625 -46.0625 L 39.359375 -46.0625 L 39.359375 -38.828125 L 24.09375 -38.828125 L 24.09375 0 L 15.53125 0 Z M 15.53125 -38.828125 "/></g></g></g><g fill="#0066cc" fill-opacity="1"><g transform="translate(219.074978, 195.871862)"><g><path d="M 37.640625 -23.5625 L 45.734375 -23.5625 L 45.734375 -5.203125 C 43.367188 -3.316406 40.601562 -1.867188 37.4375 -0.859375 C 34.28125 0.148438 31.035156 0.65625 27.703125 0.65625 C 23.015625 0.65625 18.78125 -0.363281 15 -2.40625 C 11.226562 -4.445312 8.265625 -7.265625 6.109375 -10.859375 C 3.960938 -14.453125 2.890625 -18.507812 2.890625 -23.03125 C 2.890625 -27.550781 3.960938 -31.609375 6.109375 -35.203125 C 8.265625 -38.804688 11.238281 -41.628906 15.03125 -43.671875 C 18.832031 -45.710938 23.101562 -46.734375 27.84375 -46.734375 C 31.695312 -46.734375 35.203125 -46.09375 38.359375 -44.8125 C 41.523438 -43.539062 44.179688 -41.675781 46.328125 -39.21875 L 40.9375 -33.953125 C 37.425781 -37.460938 33.191406 -39.21875 28.234375 -39.21875 C 24.984375 -39.21875 22.097656 -38.535156 19.578125 -37.171875 C 17.054688 -35.816406 15.082031 -33.910156 13.65625 -31.453125 C 12.226562 -28.992188 11.515625 -26.1875 11.515625 -23.03125 C 11.515625 -19.957031 12.226562 -17.191406 13.65625 -14.734375 C 15.082031 -12.285156 17.054688 -10.359375 19.578125 -8.953125 C 22.097656 -7.546875 24.960938 -6.84375 28.171875 -6.84375 C 31.765625 -6.84375 34.921875 -7.632812 37.640625 -9.21875 Z M 37.640625 -23.5625 "/></g></g></g><g clip-path="url(#5a67ee02b5)"><path fill="#0066cc" d="M 276.054688 175.222656 C 276.054688 175.253906 276.054688 175.289062 276.058594 175.320312 L 302.023438 161.816406 L 272.539062 186.429688 C 270.839844 183.058594 269.886719 179.25 269.886719 175.222656 C 269.886719 161.425781 281.070312 150.246094 294.867188 150.246094 C 300.503906 150.246094 305.699219 152.109375 309.878906 155.257812 L 304.972656 159.355469 C 302.050781 157.492188 298.585938 156.414062 294.867188 156.414062 C 284.476562 156.414062 276.054688 164.832031 276.054688 175.222656 Z M 276.054688 175.222656 " fill-opacity="1" fill-rule="nonzero"/></g><g clip-path="url(#8dc585ece8)"><path fill="#0066cc" d="M 319.84375 175.222656 C 319.84375 189.015625 308.660156 200.199219 294.867188 200.199219 C 290.835938 200.199219 287.03125 199.246094 283.660156 197.550781 L 286.4375 194.226562 L 287.757812 192.640625 L 308.269531 168.066406 L 294.765625 194.03125 C 294.800781 194.03125 294.832031 194.03125 294.867188 194.03125 C 305.253906 194.03125 313.675781 185.609375 313.675781 175.222656 C 313.675781 171.503906 312.597656 168.035156 310.734375 165.113281 L 314.828125 160.210938 C 317.980469 164.386719 319.84375 169.589844 319.84375 175.222656 Z M 319.84375 175.222656 " fill-opacity="1" fill-rule="nonzero"/></g><path fill="#ff6600" d="M 279.089844 185.46875 L 274.332031 189.445312 C 276.039062 191.90625 278.179688 194.046875 280.644531 195.757812 L 284.617188 190.996094 L 308.554688 162.324219 L 312.53125 157.5625 L 307.769531 161.535156 Z M 279.089844 185.46875 " fill-opacity="1" fill-rule="nonzero"/><g clip-path="url(#ae092a297f)"><path fill="#ff6600" d="M 310.1875 152.222656 C 311.3125 152.984375 312.378906 153.828125 313.382812 154.738281 L 318.742188 151.351562 L 315.351562 156.707031 C 316.261719 157.710938 317.101562 158.777344 317.867188 159.898438 L 323.550781 146.539062 Z M 310.1875 152.222656 " fill-opacity="1" fill-rule="nonzero"/></g><g fill="#000000" fill-opacity="1"><g transform="translate(51.283661, 234.918412)"><g><path d="M 7.328125 0.1875 C 6.078125 0.1875 4.867188 -0.00390625 3.703125 -0.390625 C 2.546875 -0.773438 1.632812 -1.273438 0.96875 -1.890625 L 1.84375 -3.75 C 2.476562 -3.175781 3.289062 -2.710938 4.28125 -2.359375 C 5.269531 -2.003906 6.285156 -1.828125 7.328125 -1.828125 C 8.703125 -1.828125 9.726562 -2.054688 10.40625 -2.515625 C 11.09375 -2.984375 11.4375 -3.609375 11.4375 -4.390625 C 11.4375 -4.953125 11.25 -5.410156 10.875 -5.765625 C 10.5 -6.128906 10.039062 -6.40625 9.5 -6.59375 C 8.957031 -6.78125 8.1875 -6.992188 7.1875 -7.234375 C 5.9375 -7.535156 4.925781 -7.835938 4.15625 -8.140625 C 3.394531 -8.441406 2.738281 -8.898438 2.1875 -9.515625 C 1.644531 -10.140625 1.375 -10.984375 1.375 -12.046875 C 1.375 -12.929688 1.609375 -13.726562 2.078125 -14.4375 C 2.546875 -15.15625 3.253906 -15.726562 4.203125 -16.15625 C 5.148438 -16.582031 6.328125 -16.796875 7.734375 -16.796875 C 8.710938 -16.796875 9.675781 -16.664062 10.625 -16.40625 C 11.570312 -16.15625 12.382812 -15.796875 13.0625 -15.328125 L 12.28125 -13.421875 C 11.59375 -13.867188 10.851562 -14.207031 10.0625 -14.4375 C 9.269531 -14.664062 8.492188 -14.78125 7.734375 -14.78125 C 6.390625 -14.78125 5.378906 -14.535156 4.703125 -14.046875 C 4.035156 -13.554688 3.703125 -12.921875 3.703125 -12.140625 C 3.703125 -11.578125 3.890625 -11.113281 4.265625 -10.75 C 4.648438 -10.394531 5.117188 -10.117188 5.671875 -9.921875 C 6.234375 -9.722656 7 -9.515625 7.96875 -9.296875 C 9.21875 -8.992188 10.222656 -8.691406 10.984375 -8.390625 C 11.742188 -8.097656 12.394531 -7.640625 12.9375 -7.015625 C 13.476562 -6.398438 13.75 -5.570312 13.75 -4.53125 C 13.75 -3.65625 13.507812 -2.859375 13.03125 -2.140625 C 12.5625 -1.421875 11.84375 -0.851562 10.875 -0.4375 C 9.914062 -0.0195312 8.734375 0.1875 7.328125 0.1875 Z M 7.328125 0.1875 "/></g></g></g><g fill="#000000" fill-opacity="1"><g transform="translate(72.338639, 234.918412)"><g><path d="M 14.546875 -2.0625 L 14.546875 0 L 2.484375 0 L 2.484375 -16.609375 L 14.203125 -16.609375 L 14.203125 -14.546875 L 4.859375 -14.546875 L 4.859375 -9.4375 L 13.1875 -9.4375 L 13.1875 -7.421875 L 4.859375 -7.421875 L 4.859375 -2.0625 Z M 14.546875 -2.0625 "/></g></g></g><g fill="#000000" fill-opacity="1"><g transform="translate(94.55525, 234.918412)"><g><path d="M 13.0625 -4.15625 L 4.25 -4.15625 L 2.421875 0 L -0.03125 0 L 7.5 -16.609375 L 9.84375 -16.609375 L 17.390625 0 L 14.890625 0 Z M 12.234375 -6.046875 L 8.65625 -14.1875 L 5.078125 -6.046875 Z M 12.234375 -6.046875 "/></g></g></g><g fill="#000000" fill-opacity="1"><g transform="translate(118.241698, 234.918412)"><g><path d="M 17.890625 0 L 17.859375 -12.09375 L 11.859375 -2.015625 L 10.765625 -2.015625 L 4.765625 -12.03125 L 4.765625 0 L 2.484375 0 L 2.484375 -16.609375 L 4.4375 -16.609375 L 11.359375 -4.9375 L 18.1875 -16.609375 L 20.140625 -16.609375 L 20.15625 0 Z M 17.890625 0 "/></g></g></g><g fill="#000000" fill-opacity="1"><g transform="translate(147.214795, 234.918412)"><g><path d="M 2.484375 -16.609375 L 4.859375 -16.609375 L 4.859375 -2.0625 L 13.859375 -2.0625 L 13.859375 0 L 2.484375 0 Z M 2.484375 -16.609375 "/></g></g></g><g fill="#000000" fill-opacity="1"><g transform="translate(167.62968, 234.918412)"><g><path d="M 14.546875 -2.0625 L 14.546875 0 L 2.484375 0 L 2.484375 -16.609375 L 14.203125 -16.609375 L 14.203125 -14.546875 L 4.859375 -14.546875 L 4.859375 -9.4375 L 13.1875 -9.4375 L 13.1875 -7.421875 L 4.859375 -7.421875 L 4.859375 -2.0625 Z M 14.546875 -2.0625 "/></g></g></g><g fill="#000000" fill-opacity="1"><g transform="translate(189.846289, 234.918412)"><g><path d="M 7.328125 0.1875 C 6.078125 0.1875 4.867188 -0.00390625 3.703125 -0.390625 C 2.546875 -0.773438 1.632812 -1.273438 0.96875 -1.890625 L 1.84375 -3.75 C 2.476562 -3.175781 3.289062 -2.710938 4.28125 -2.359375 C 5.269531 -2.003906 6.285156 -1.828125 7.328125 -1.828125 C 8.703125 -1.828125 9.726562 -2.054688 10.40625 -2.515625 C 11.09375 -2.984375 11.4375 -3.609375 11.4375 -4.390625 C 11.4375 -4.953125 11.25 -5.410156 10.875 -5.765625 C 10.5 -6.128906 10.039062 -6.40625 9.5 -6.59375 C 8.957031 -6.78125 8.1875 -6.992188 7.1875 -7.234375 C 5.9375 -7.535156 4.925781 -7.835938 4.15625 -8.140625 C 3.394531 -8.441406 2.738281 -8.898438 2.1875 -9.515625 C 1.644531 -10.140625 1.375 -10.984375 1.375 -12.046875 C 1.375 -12.929688 1.609375 -13.726562 2.078125 -14.4375 C 2.546875 -15.15625 3.253906 -15.726562 4.203125 -16.15625 C 5.148438 -16.582031 6.328125 -16.796875 7.734375 -16.796875 C 8.710938 -16.796875 9.675781 -16.664062 10.625 -16.40625 C 11.570312 -16.15625 12.382812 -15.796875 13.0625 -15.328125 L 12.28125 -13.421875 C 11.59375 -13.867188 10.851562 -14.207031 10.0625 -14.4375 C 9.269531 -14.664062 8.492188 -14.78125 7.734375 -14.78125 C 6.390625 -14.78125 5.378906 -14.535156 4.703125 -14.046875 C 4.035156 -13.554688 3.703125 -12.921875 3.703125 -12.140625 C 3.703125 -11.578125 3.890625 -11.113281 4.265625 -10.75 C 4.648438 -10.394531 5.117188 -10.117188 5.671875 -9.921875 C 6.234375 -9.722656 7 -9.515625 7.96875 -9.296875 C 9.21875 -8.992188 10.222656 -8.691406 10.984375 -8.390625 C 11.742188 -8.097656 12.394531 -7.640625 12.9375 -7.015625 C 13.476562 -6.398438 13.75 -5.570312 13.75 -4.53125 C 13.75 -3.65625 13.507812 -2.859375 13.03125 -2.140625 C 12.5625 -1.421875 11.84375 -0.851562 10.875 -0.4375 C 9.914062 -0.0195312 8.734375 0.1875 7.328125 0.1875 Z M 7.328125 0.1875 "/></g></g></g><g fill="#000000" fill-opacity="1"><g transform="translate(210.901265, 234.918412)"><g><path d="M 7.328125 0.1875 C 6.078125 0.1875 4.867188 -0.00390625 3.703125 -0.390625 C 2.546875 -0.773438 1.632812 -1.273438 0.96875 -1.890625 L 1.84375 -3.75 C 2.476562 -3.175781 3.289062 -2.710938 4.28125 -2.359375 C 5.269531 -2.003906 6.285156 -1.828125 7.328125 -1.828125 C 8.703125 -1.828125 9.726562 -2.054688 10.40625 -2.515625 C 11.09375 -2.984375 11.4375 -3.609375 11.4375 -4.390625 C 11.4375 -4.953125 11.25 -5.410156 10.875 -5.765625 C 10.5 -6.128906 10.039062 -6.40625 9.5 -6.59375 C 8.957031 -6.78125 8.1875 -6.992188 7.1875 -7.234375 C 5.9375 -7.535156 4.925781 -7.835938 4.15625 -8.140625 C 3.394531 -8.441406 2.738281 -8.898438 2.1875 -9.515625 C 1.644531 -10.140625 1.375 -10.984375 1.375 -12.046875 C 1.375 -12.929688 1.609375 -13.726562 2.078125 -14.4375 C 2.546875 -15.15625 3.253906 -15.726562 4.203125 -16.15625 C 5.148438 -16.582031 6.328125 -16.796875 7.734375 -16.796875 C 8.710938 -16.796875 9.675781 -16.664062 10.625 -16.40625 C 11.570312 -16.15625 12.382812 -15.796875 13.0625 -15.328125 L 12.28125 -13.421875 C 11.59375 -13.867188 10.851562 -14.207031 10.0625 -14.4375 C 9.269531 -14.664062 8.492188 -14.78125 7.734375 -14.78125 C 6.390625 -14.78125 5.378906 -14.535156 4.703125 -14.046875 C 4.035156 -13.554688 3.703125 -12.921875 3.703125 -12.140625 C 3.703125 -11.578125 3.890625 -11.113281 4.265625 -10.75 C 4.648438 -10.394531 5.117188 -10.117188 5.671875 -9.921875 C 6.234375 -9.722656 7 -9.515625 7.96875 -9.296875 C 9.21875 -8.992188 10.222656 -8.691406 10.984375 -8.390625 C 11.742188 -8.097656 12.394531 -7.640625 12.9375 -7.015625 C 13.476562 -6.398438 13.75 -5.570312 13.75 -4.53125 C 13.75 -3.65625 13.507812 -2.859375 13.03125 -2.140625 C 12.5625 -1.421875 11.84375 -0.851562 10.875 -0.4375 C 9.914062 -0.0195312 8.734375 0.1875 7.328125 0.1875 Z M 7.328125 0.1875 "/></g></g></g><g fill="#000000" fill-opacity="1"><g transform="translate(231.95624, 234.918412)"><g/></g></g><g fill="#000000" fill-opacity="1"><g transform="translate(244.666368, 234.918412)"><g><path d="M 13.59375 0 L 10.015625 -5.09375 C 9.566406 -5.0625 9.21875 -5.046875 8.96875 -5.046875 L 4.859375 -5.046875 L 4.859375 0 L 2.484375 0 L 2.484375 -16.609375 L 8.96875 -16.609375 C 11.113281 -16.609375 12.800781 -16.09375 14.03125 -15.0625 C 15.269531 -14.03125 15.890625 -12.613281 15.890625 -10.8125 C 15.890625 -9.53125 15.570312 -8.4375 14.9375 -7.53125 C 14.3125 -6.632812 13.410156 -5.984375 12.234375 -5.578125 L 16.171875 0 Z M 8.890625 -7.0625 C 10.390625 -7.0625 11.535156 -7.382812 12.328125 -8.03125 C 13.117188 -8.6875 13.515625 -9.613281 13.515625 -10.8125 C 13.515625 -12.019531 13.117188 -12.941406 12.328125 -13.578125 C 11.535156 -14.222656 10.390625 -14.546875 8.890625 -14.546875 L 4.859375 -14.546875 L 4.859375 -7.0625 Z M 8.890625 -7.0625 "/></g></g></g><g fill="#000000" fill-opacity="1"><g transform="translate(268.234283, 234.918412)"><g><path d="M 2.484375 -16.609375 L 4.859375 -16.609375 L 4.859375 0 L 2.484375 0 Z M 2.484375 -16.609375 "/></g></g></g><g fill="#000000" fill-opacity="1"><g transform="translate(281.916403, 234.918412)"><g><path d="M 2.484375 -16.609375 L 9.484375 -16.609375 C 11.242188 -16.609375 12.800781 -16.257812 14.15625 -15.5625 C 15.519531 -14.863281 16.578125 -13.882812 17.328125 -12.625 C 18.078125 -11.375 18.453125 -9.929688 18.453125 -8.296875 C 18.453125 -6.671875 18.078125 -5.226562 17.328125 -3.96875 C 16.578125 -2.71875 15.519531 -1.742188 14.15625 -1.046875 C 12.800781 -0.347656 11.242188 0 9.484375 0 L 2.484375 0 Z M 9.34375 -2.0625 C 10.6875 -2.0625 11.867188 -2.320312 12.890625 -2.84375 C 13.910156 -3.363281 14.695312 -4.09375 15.25 -5.03125 C 15.800781 -5.976562 16.078125 -7.066406 16.078125 -8.296875 C 16.078125 -9.535156 15.800781 -10.625 15.25 -11.5625 C 14.695312 -12.5 13.910156 -13.226562 12.890625 -13.75 C 11.867188 -14.28125 10.6875 -14.546875 9.34375 -14.546875 L 4.859375 -14.546875 L 4.859375 -2.0625 Z M 9.34375 -2.0625 "/></g></g></g><g fill="#000000" fill-opacity="1"><g transform="translate(307.831319, 234.918412)"><g><path d="M 14.546875 -2.0625 L 14.546875 0 L 2.484375 0 L 2.484375 -16.609375 L 14.203125 -16.609375 L 14.203125 -14.546875 L 4.859375 -14.546875 L 4.859375 -9.4375 L 13.1875 -9.4375 L 13.1875 -7.421875 L 4.859375 -7.421875 L 4.859375 -2.0625 Z M 14.546875 -2.0625 "/></g></g></g></svg>