<svg width="44" height="45" viewBox="0 0 44 45" fill="none" xmlns="http://www.w3.org/2000/svg">
<path d="M37.1408 11.0194C37.6179 10.9972 38.0667 10.7863 38.3884 10.4331C38.71 10.08 38.8782 9.61351 38.856 9.13634C38.8337 8.65917 38.6228 8.21039 38.2697 7.88873C37.9165 7.56706 37.45 7.39886 36.9729 7.42112L36.2983 7.45213L36.2673 6.77754C36.2563 6.54127 36.1988 6.30948 36.0982 6.09542C35.9976 5.88135 35.8558 5.6892 35.681 5.52993C35.5061 5.37065 35.3016 5.24738 35.0791 5.16715C34.8566 5.08692 34.6204 5.0513 34.3842 5.06232C34.1479 5.07335 33.9161 5.1308 33.702 5.2314C33.488 5.332 33.2958 5.47378 33.1366 5.64864C32.9773 5.8235 32.854 6.02803 32.7738 6.25053C32.6935 6.47303 32.6579 6.70916 32.6689 6.94543L32.8678 11.2183L37.1408 11.0194ZM37.9734 16.3239L37.9492 16.8442L37.4289 16.82C37.2461 16.8105 37.0633 16.8372 36.8908 16.8986C36.7184 16.9599 36.5598 17.0548 36.4242 17.1777C36.2886 17.3006 36.1786 17.4491 36.1005 17.6146C36.0225 17.7802 35.978 17.9595 35.9695 18.1424C35.961 18.3252 35.9888 18.5079 36.0512 18.68C36.1136 18.852 36.2093 19.01 36.333 19.145C36.4567 19.2799 36.6058 19.389 36.7718 19.4661C36.9379 19.5431 37.1175 19.5866 37.3003 19.594L40.5939 19.7468L40.7467 16.4532C40.7551 16.2711 40.7277 16.0892 40.6658 15.9177C40.604 15.7462 40.509 15.5886 40.3862 15.4538C40.2635 15.319 40.1154 15.2098 39.9504 15.1322C39.7854 15.0547 39.6068 15.0104 39.4247 15.002C39.2426 14.9935 39.0606 15.0209 38.8891 15.0828C38.7177 15.1446 38.56 15.2396 38.4253 15.3624C38.2905 15.4851 38.1812 15.6332 38.1037 15.7982C38.0262 15.9632 37.9819 16.1418 37.9734 16.3239Z" fill="#1A76D2"/>
<path d="M32.2407 15.9451C32.7628 15.9451 33.1861 15.5218 33.1861 14.9997C33.1861 14.4776 32.7628 14.0544 32.2407 14.0544C31.7187 14.0544 31.2954 14.4776 31.2954 14.9997C31.2954 15.5218 31.7187 15.9451 32.2407 15.9451Z" fill="#1A76D2"/>
<path d="M6.54365 11.0195L10.8166 11.2184L11.0155 6.94548C11.0287 6.4737 10.8562 6.01557 10.5352 5.66962C10.2141 5.32367 9.77015 5.11752 9.2987 5.09553C8.82725 5.07353 8.36599 5.23743 8.01412 5.55199C7.66226 5.86655 7.4479 6.30663 7.41714 6.77759L7.38613 7.45218L6.71154 7.42118C6.23437 7.39891 5.7679 7.56711 5.41475 7.88878C5.0616 8.21045 4.8507 8.65923 4.82843 9.13639C4.80617 9.61356 4.97437 10.08 5.29604 10.4332C5.6177 10.7863 6.06648 10.9972 6.54365 11.0195ZM2.93701 16.4525L3.08977 19.7461L6.38332 19.5933C6.56619 19.5859 6.7458 19.5424 6.91181 19.4654C7.07781 19.3883 7.22695 19.2792 7.35063 19.1443C7.47431 19.0093 7.5701 18.8513 7.63249 18.6792C7.69488 18.5072 7.72263 18.3245 7.71416 18.1417C7.70568 17.9588 7.66115 17.7795 7.58311 17.6139C7.50508 17.4484 7.39508 17.2999 7.25945 17.177C7.12382 17.0541 6.96524 16.9592 6.79281 16.8979C6.62039 16.8365 6.43753 16.8098 6.25475 16.8193L5.73444 16.8435L5.71024 16.3232C5.70597 16.1382 5.66474 15.9559 5.58899 15.787C5.51324 15.6181 5.40449 15.4661 5.26913 15.3398C5.13377 15.2136 4.97454 15.1157 4.8008 15.0519C4.62706 14.9881 4.44231 14.9596 4.25742 14.9683C4.07254 14.9769 3.89124 15.0224 3.72419 15.1021C3.55714 15.1818 3.40771 15.2941 3.28469 15.4324C3.16167 15.5707 3.06753 15.7321 3.00783 15.9073C2.94812 16.0825 2.92404 16.2679 2.93701 16.4525Z" fill="#1A76D2"/>
<path d="M12.3887 2.73082C12.9108 2.73082 13.334 2.30758 13.334 1.78548C13.334 1.26339 12.9108 0.840149 12.3887 0.840149C11.8666 0.840149 11.4434 1.26339 11.4434 1.78548C11.4434 2.30758 11.8666 2.73082 12.3887 2.73082Z" fill="#1A76D2"/>
<path d="M2.93557 5.54631C3.45766 5.54631 3.88091 5.12307 3.88091 4.60098C3.88091 4.07888 3.45766 3.65564 2.93557 3.65564C2.41348 3.65564 1.99023 4.07888 1.99023 4.60098C1.99023 5.12307 2.41348 5.54631 2.93557 5.54631Z" fill="#1A76D2"/>
<path d="M11.4439 15.9451C11.966 15.9451 12.3892 15.5218 12.3892 14.9997C12.3892 14.4776 11.966 14.0544 11.4439 14.0544C10.9218 14.0544 10.4985 14.4776 10.4985 14.9997C10.4985 15.5218 10.9218 15.9451 11.4439 15.9451Z" fill="#1A76D2"/>
<path d="M21.8422 19.2742C23.6663 19.2742 25.1509 17.7897 25.1509 15.9655C25.1509 14.1414 23.6663 12.6569 21.8422 12.6569C20.0181 12.6569 18.5336 14.1414 18.5336 15.9655C18.5336 17.7897 20.0181 19.2742 21.8422 19.2742ZM21.8422 13.6022C23.1453 13.6022 24.2056 14.6625 24.2056 15.9655C24.2056 17.2686 23.1453 18.3289 21.8422 18.3289C20.5392 18.3289 19.4789 17.2686 19.4789 15.9655C19.4789 14.6625 20.5392 13.6022 21.8422 13.6022ZM0.590332 39.1263C0.832338 42.2943 3.4876 44.7983 6.71686 44.7983H36.9676C40.1969 44.7983 42.8521 42.2943 43.0941 39.1263H0.590332Z" fill="#1A76D2"/>
<path d="M2.46875 38.1808H6.25236C6.41723 32.8197 9.3697 27.8585 14.0427 25.1488C14.1509 25.0893 14.2781 25.0745 14.3971 25.1076C14.5161 25.1407 14.6174 25.219 14.6793 25.3258C14.7413 25.4327 14.759 25.5595 14.7286 25.6792C14.6983 25.7989 14.6222 25.902 14.5169 25.9663C10.1343 28.5067 7.36181 33.1547 7.1977 38.1801H41.2162C40.9643 27.7118 32.3708 19.2734 21.8428 19.2734C11.3148 19.2734 2.72059 27.7118 2.46875 38.1808ZM21.8421 23.0555C23.8636 23.0555 25.8314 23.4381 27.6918 24.1937C27.7505 24.2161 27.8042 24.2501 27.8496 24.2935C27.8951 24.337 27.9314 24.3891 27.9564 24.4467C27.9815 24.5044 27.9948 24.5665 27.9956 24.6294C27.9963 24.6922 27.9845 24.7546 27.9609 24.8129C27.9372 24.8711 27.9022 24.9241 27.8578 24.9686C27.8135 25.0132 27.7607 25.0485 27.7025 25.0723C27.6444 25.0962 27.582 25.1083 27.5191 25.1078C27.4563 25.1073 27.3941 25.0942 27.3364 25.0694C25.5915 24.3606 23.7254 23.9976 21.8421 24.0008C21.7167 24.0008 21.5965 23.951 21.5078 23.8624C21.4192 23.7737 21.3694 23.6535 21.3694 23.5281C21.3694 23.4028 21.4192 23.2826 21.5078 23.1939C21.5965 23.1053 21.7167 23.0555 21.8421 23.0555Z" fill="#1A76D2"/>
</svg>
