<svg width="50" height="29" viewBox="0 0 50 29" fill="none" xmlns="http://www.w3.org/2000/svg">
<path d="M49.2415 22.874V25.5188C49.2415 27.4203 47.703 28.9587 45.8016 28.9587H4.28027C2.3788 28.9587 0.840332 27.4203 0.840332 25.5188V22.874H49.2415ZM33.2 10.307C32.894 10.1998 32.5967 10.0753 32.2994 9.9457C32.2319 10.2067 32.123 10.4574 31.9191 10.6613L28.9476 13.6328C28.6433 13.9371 28.2458 14.0892 27.8482 14.0892C27.4506 14.0892 27.053 13.9371 26.7488 13.6328C26.1403 13.0244 26.1403 12.0391 26.7488 11.4323L29.7203 8.46082L29.7255 8.45737C29.5163 8.30525 29.3054 8.15486 29.1049 7.99064L27.5439 6.70628C27.5111 6.74777 27.4956 6.7979 27.4575 6.83593L22.9942 11.2975C22.69 11.6017 22.2924 11.7538 21.8948 11.7538C21.4973 11.7538 21.0997 11.6017 20.7954 11.2975C20.187 10.689 20.187 9.7037 20.7954 9.09695L25.1533 4.73912L20.996 1.31819C20.5811 0.972469 20.0971 0.816895 19.5958 0.816895C18.9735 0.816895 18.3339 1.09347 17.9017 1.61206C15.4644 4.53341 11.8343 6.22745 8.03136 6.22745H3.41597C1.9985 6.22745 0.840332 7.38562 0.840332 8.82037V11.7763H8.04865C12.8784 11.7763 16.9199 15.2093 17.8654 19.7625H35.499V11.1073L33.2 10.307ZM48.9355 19.7625C48.2234 17.0866 46.2527 14.8636 43.5544 13.9198L38.6105 12.1912V19.7625H48.9355Z" fill="#1A76D2"/>
</svg>
